<svg width="36" height="36" viewBox="0 0 36 36" fill="none" xmlns="http://www.w3.org/2000/svg">
<mask id="mask0_2016_34" style="mask-type:luminance" maskUnits="userSpaceOnUse" x="0" y="0" width="36" height="36">
<path d="M36 0H0V36H36V0Z" fill="white"/>
</mask>
<g mask="url(#mask0_2016_34)">
<path fill-rule="evenodd" clip-rule="evenodd" d="M21.3638 4.54465C22.1675 4.74558 22.6562 5.55997 22.4552 6.36367L16.4552 30.3636C16.2543 31.1673 15.44 31.656 14.6362 31.455C13.8325 31.2542 13.3439 30.4398 13.5448 29.6361L19.5449 5.63607C19.7457 4.83237 20.5601 4.34373 21.3638 4.54465ZM10.0607 9.43921C10.6464 10.025 10.6464 10.9747 10.0607 11.5605L3.62132 17.9999L10.0607 24.4392C10.6464 25.025 10.6464 25.9748 10.0607 26.5605C9.47487 27.1463 8.52513 27.1463 7.93934 26.5605L0.43934 19.0605C-0.146447 18.4748 -0.146447 17.525 0.43934 16.9392L7.93934 9.43921C8.52513 8.85342 9.47487 8.85342 10.0607 9.43921ZM25.9394 9.43921C26.5251 8.85342 27.4749 8.85342 28.0607 9.43921L35.5607 16.9392C36.1464 17.525 36.1464 18.4748 35.5607 19.0605L28.0607 26.5605C27.4749 27.1463 26.5251 27.1463 25.9394 26.5605C25.3536 25.9748 25.3536 25.025 25.9394 24.4392L32.3787 17.9999L25.9394 11.5605C25.3536 10.9747 25.3536 10.025 25.9394 9.43921Z" fill="#CDFAF9"/>
</g>
</svg>
